<?xml version="1.0" encoding="UTF-8"?>
<svg width="22px" height="22px" viewBox="0 0 22 22" version="1.1" xmlns="http://www.w3.org/2000/svg" xmlns:xlink="http://www.w3.org/1999/xlink">
    <!-- Generator: Sketch 49.1 (51147) - http://www.bohemiancoding.com/sketch -->
    <title>Combined Shape</title>
    <desc>Created with Sketch.</desc>
    <defs>
        <path d="M11,22 C4.92486775,22 0,17.0751322 0,11 C0,4.92486775 4.92486775,0 11,0 C17.0751322,0 22,4.92486775 22,11 C22,17.0751322 17.0751322,22 11,22 Z M8.78515625,9.95703125 C8.56640516,9.95703125 8.36246839,10.0265293 8.17333984,10.1655273 C7.98421129,10.3045254 7.83268286,10.5540347 7.71875,10.9140625 L7.08984375,12.8417969 L6.98046875,12.8417969 L6.11914062,10.1621094 C6.07812479,10.0345046 6.02799509,9.91145893 5.96875,9.79296875 C5.90950491,9.67447857 5.8388676,9.5685226 5.75683594,9.47509766 C5.67480428,9.38167271 5.58252004,9.30647815 5.47998047,9.24951172 C5.37744089,9.19254529 5.26237043,9.1640625 5.13476562,9.1640625 C4.95247305,9.1640625 4.7998053,9.19140598 4.67675781,9.24609375 C4.55371032,9.30078152 4.45459022,9.37483677 4.37939453,9.46826172 C4.30419884,9.56168667 4.24951189,9.66992126 4.21533203,9.79296875 C4.18115217,9.91601624 4.1640625,10.0436191 4.1640625,10.1757812 C4.1640625,10.2988287 4.18115217,10.4230137 4.21533203,10.5483398 C4.24951189,10.673666 4.28710917,10.7910151 4.328125,10.9003906 L5.859375,14.9335938 C5.95963592,15.2024753 6.05533809,15.4086907 6.14648438,15.5522461 C6.23763066,15.6958015 6.32763627,15.8006182 6.41650391,15.8666992 C6.50537154,15.9327803 6.59423784,15.9715169 6.68310547,15.9829102 C6.7719731,15.9943034 6.86653596,16 6.96679688,16 C7.05794316,16 7.14453084,15.9943034 7.2265625,15.9829102 C7.30859416,15.9715169 7.38948528,15.9327803 7.46923828,15.8666992 C7.54899128,15.8006182 7.63102171,15.6958015 7.71533203,15.5522461 C7.79964235,15.4086907 7.89192658,15.2024753 7.9921875,14.9335938 L8.73046875,12.4726562 L8.83984375,12.4726562 L9.55078125,14.9335938 C9.65104217,15.2024753 9.74674434,15.4086907 9.83789062,15.5522461 C9.92903691,15.6958015 10.0190425,15.8006182 10.1079102,15.8666992 C10.1967778,15.9327803 10.2856441,15.9715169 10.3745117,15.9829102 C10.4633794,15.9943034 10.5579422,16 10.6582031,16 C10.7493494,16 10.8359371,15.9943034 10.9179688,15.9829102 C11.0000004,15.9715169 11.0820308,15.9327803 11.1640625,15.8666992 C11.2460942,15.8006182 11.3292639,15.6958015 11.4135742,15.5522461 C11.4978845,15.4086907 11.5924474,15.2024753 11.6972656,14.9335938 L13.2148438,10.9003906 C13.2558596,10.7819004 13.2934569,10.6645514 13.3276367,10.5483398 C13.3618166,10.4321283 13.3789062,10.3125006 13.3789062,10.1894531 C13.3789062,10.0618483 13.3629559,9.93652405 13.3310547,9.81347656 C13.2991535,9.69042907 13.2467452,9.58105517 13.1738281,9.48535156 C13.1009111,9.38964796 13.0074875,9.31217478 12.8935547,9.25292969 C12.7796218,9.1936846 12.6406258,9.1640625 12.4765625,9.1640625 C12.3170565,9.1640625 12.1803391,9.19254529 12.0664062,9.24951172 C11.9524734,9.30647815 11.8544926,9.38167271 11.7724609,9.47509766 C11.6904293,9.5685226 11.6209313,9.67447857 11.5639648,9.79296875 C11.5069984,9.91145893 11.4602866,10.0345046 11.4238281,10.1621094 L10.6582031,12.8417969 L10.5488281,12.8417969 L9.82421875,10.9140625 C9.69205663,10.5540347 9.5405282,10.3045254 9.36962891,10.1655273 C9.19872961,10.0265293 9.00390734,9.95703125 8.78515625,9.95703125 Z M16.0039062,9.42382812 L16.0039062,14.3867188 C16.0039062,14.5872406 16.0130207,14.7843415 16.03125,14.9780273 C16.0494793,15.1717132 16.0939124,15.3437492 16.1645508,15.4941406 C16.2351892,15.644532 16.3388665,15.7664383 16.4755859,15.8598633 C16.6123054,15.9532882 16.8014311,16 17.0429688,16 C17.2799491,16 17.4679355,15.9532882 17.6069336,15.8598633 C17.7459317,15.7664383 17.8507483,15.644532 17.9213867,15.4941406 C17.9920251,15.3437492 18.0364582,15.1717132 18.0546875,14.9780273 C18.0729168,14.7843415 18.0820312,14.5872406 18.0820312,14.3867188 L18.0820312,8.04296875 C18.0820312,7.84700423 18.0729168,7.65332127 18.0546875,7.46191406 C18.0364582,7.27050686 17.9920251,7.09847082 17.9213867,6.94580078 C17.8507483,6.79313075 17.7459317,6.66894579 17.6069336,6.57324219 C17.4679355,6.47753858 17.2799491,6.4296875 17.0429688,6.4296875 C16.9654944,6.4296875 16.901693,6.43082681 16.8515625,6.43310547 C16.801432,6.43538413 16.7558596,6.43994137 16.7148438,6.44677734 C16.6738279,6.45361332 16.633952,6.46500643 16.5952148,6.48095703 C16.5564777,6.49690763 16.5143231,6.51627593 16.46875,6.5390625 C16.3912757,6.57552102 16.3001307,6.64160108 16.1953125,6.73730469 C16.0904943,6.83300829 15.9674486,6.94807875 15.8261719,7.08251953 C15.6848951,7.21696031 15.5242522,7.36165287 15.3442383,7.51660156 C15.1642244,7.67155025 14.9602876,7.824218 14.7324219,7.97460938 C14.6230463,8.03385446 14.5205083,8.09082004 14.4248047,8.14550781 C14.3291011,8.20019559 14.244792,8.26171841 14.171875,8.33007812 C14.098958,8.39843784 14.0419924,8.47932896 14.0009766,8.57275391 C13.9599607,8.66617885 13.9394531,8.77669207 13.9394531,8.90429688 C13.9394531,9.03190168 13.9633787,9.1526687 14.0112305,9.26660156 C14.0590823,9.38053442 14.124023,9.48193315 14.2060547,9.57080078 C14.2880863,9.65966841 14.3872065,9.73030573 14.503418,9.78271484 C14.6196295,9.83512396 14.7460931,9.86132812 14.8828125,9.86132812 C15.1243502,9.86132812 15.3339835,9.82259153 15.5117188,9.74511719 C15.689454,9.66764284 15.8535149,9.56054756 16.0039062,9.42382812 Z" id="path-1"></path>
    </defs>
    <g id="Page-1" stroke="none" stroke-width="1" fill="none" fill-rule="evenodd">
        <g id="Group-2">
            <mask id="mask-2" fill="white">
                <use xlink:href="#path-1"></use>
            </mask>
            <use id="Combined-Shape" fill="#2F3291" xlink:href="#path-1"></use>
        </g>
    </g>
</svg>